<?xml version="1.0" encoding="utf-8"?> <!-- Generated by Layerhero SVG Exporter: http://www.layerhero.com/photoshop-svg-exporter --><!DOCTYPE svg PUBLIC "-//W3C//DTD SVG 1.1//EN" "http://www.w3.org/Graphics/SVG/1.1/DTD/svg11.dtd"><svg version="1.1" baseProfile="full" xmlns="http://www.w3.org/2000/svg" xmlns:xlink="http://www.w3.org/1999/xlink" xmlns:ev="http://www.w3.org/2001/xml-events" width="111" height="111" viewBox="0 0 111 111"><g transform="scale(NaN)" ><path fill-rule="evenodd"  fill="rgb( 255, 255, 255 )" d="M0.006,16.771 C0.006,16.771 30.473,43.110 30.473,43.110 C30.473,43.110 55.410,0.001 55.410,0.001 C55.410,0.001 80.342,43.110 80.342,43.110 C80.342,43.110 110.811,16.771 110.811,16.771 C110.811,16.771 110.811,78.714 110.811,78.714 C110.811,78.714 0.006,78.714 0.006,78.714 C0.006,78.714 0.006,16.771 0.006,16.771 ZM104.260,72.177 C104.260,72.177 104.260,31.084 104.260,31.084 C104.260,31.084 83.678,48.876 83.678,48.876 C83.678,48.876 97.158,72.177 97.158,72.177 C97.158,72.177 104.260,72.177 104.260,72.177 ZM54.089,72.177 C54.089,72.177 54.094,72.177 54.094,72.177 C54.094,72.177 56.723,72.177 56.723,72.177 C56.723,72.177 89.590,72.177 89.590,72.177 C89.590,72.177 55.410,13.077 55.410,13.077 C55.410,13.077 21.223,72.177 21.223,72.177 C21.223,72.177 54.089,72.177 54.089,72.177 ZM6.553,72.177 C6.553,72.177 13.661,72.177 13.661,72.177 C13.661,72.177 27.138,48.876 27.138,48.876 C27.138,48.876 6.553,31.084 6.553,31.084 C6.553,31.084 6.553,72.177 6.553,72.177 ZM1.572,103.674 C1.572,103.674 6.680,103.674 6.680,103.674 C6.680,103.674 6.680,98.487 6.680,98.487 C6.680,98.487 8.254,98.487 8.254,98.487 C8.254,98.487 8.254,110.694 8.254,110.694 C8.254,110.694 6.680,110.694 6.680,110.694 C6.680,110.694 6.680,104.974 6.680,104.974 C6.680,104.974 1.572,104.974 1.572,104.974 C1.572,104.974 1.572,110.694 1.572,110.694 C1.572,110.694 -0.002,110.694 -0.002,110.694 C-0.002,110.694 -0.002,98.487 -0.002,98.487 C-0.002,98.487 1.572,98.487 1.572,98.487 C1.572,98.487 1.572,103.674 1.572,103.674 ZM19.351,98.277 C21.298,98.277 23.691,99.683 23.691,104.603 C23.691,105.585 23.623,110.905 19.351,110.905 C17.379,110.905 15.010,109.499 15.010,104.603 C15.010,99.730 17.331,98.277 19.351,98.277 ZM19.351,109.429 C21.721,109.429 22.051,106.383 22.051,104.603 C22.051,102.798 21.721,99.751 19.351,99.751 C16.980,99.751 16.651,102.798 16.651,104.603 C16.651,106.383 16.980,109.429 19.351,109.429 ZM32.538,103.674 C32.538,103.674 37.645,103.674 37.645,103.674 C37.645,103.674 37.645,98.487 37.645,98.487 C37.645,98.487 39.219,98.487 39.219,98.487 C39.219,98.487 39.219,110.694 39.219,110.694 C39.219,110.694 37.645,110.694 37.645,110.694 C37.645,110.694 37.645,104.974 37.645,104.974 C37.645,104.974 32.538,104.974 32.538,104.974 C32.538,104.974 32.538,110.694 32.538,110.694 C32.538,110.694 30.964,110.694 30.964,110.694 C30.964,110.694 30.964,98.487 30.964,98.487 C30.964,98.487 32.538,98.487 32.538,98.487 C32.538,98.487 32.538,103.674 32.538,103.674 ZM48.317,109.125 C48.317,109.125 54.312,109.125 54.312,109.125 C54.312,109.125 54.312,110.697 54.312,110.697 C54.312,110.697 46.745,110.697 46.745,110.697 C46.745,110.697 46.745,110.694 46.745,110.694 C46.745,110.694 46.743,110.694 46.743,110.694 C46.743,110.694 46.743,98.487 46.743,98.487 C46.743,98.487 48.317,98.487 48.317,98.487 C48.317,98.487 48.317,109.125 48.317,109.125 ZM63.877,98.277 C65.824,98.277 68.217,99.683 68.217,104.603 C68.217,105.585 68.149,110.905 63.877,110.905 C61.903,110.905 59.535,109.499 59.535,104.603 C59.535,99.730 61.857,98.277 63.877,98.277 ZM63.877,109.429 C66.245,109.429 66.577,106.383 66.577,104.603 C66.577,102.798 66.245,99.751 63.877,99.751 C61.506,99.751 61.176,102.798 61.176,104.603 C61.176,106.383 61.506,109.429 63.877,109.429 ZM78.867,107.134 C78.867,107.134 82.198,98.183 82.198,98.183 C82.198,98.183 83.703,98.746 83.703,98.746 C83.703,98.746 79.008,110.999 79.008,110.999 C79.008,110.999 78.724,110.999 78.724,110.999 C78.724,110.999 74.031,98.746 74.031,98.746 C74.031,98.746 75.533,98.183 75.533,98.183 C75.533,98.183 78.867,107.134 78.867,107.134 ZM90.394,103.690 C90.394,103.690 90.980,103.690 90.980,103.690 C90.980,103.690 95.182,98.183 95.182,98.183 C95.182,98.183 96.380,99.120 96.380,99.120 C96.380,99.120 92.318,104.251 92.318,104.251 C92.318,104.251 97.081,109.990 97.081,109.990 C97.081,109.990 95.885,110.999 95.885,110.999 C95.885,110.999 90.932,104.978 90.932,104.978 C90.932,104.978 90.394,104.978 90.394,104.978 C90.394,104.978 90.394,110.694 90.394,110.694 C90.394,110.694 88.821,110.694 88.821,110.694 C88.821,110.694 88.821,98.487 88.821,98.487 C88.821,98.487 90.394,98.487 90.394,98.487 C90.394,98.487 90.394,103.690 90.394,103.690 ZM0.006,85.357 C0.006,85.357 110.696,85.357 110.696,85.357 C110.696,85.357 110.696,91.944 110.696,91.944 C110.696,91.944 0.006,91.944 0.006,91.944 C0.006,91.944 0.006,85.357 0.006,85.357 ZM99.016,86.841 C99.016,86.841 99.499,86.934 99.499,86.934 C99.499,86.934 99.499,90.180 99.499,90.180 C99.499,90.180 99.016,90.273 99.016,90.273 C99.016,90.273 99.016,90.817 99.016,90.817 C99.016,90.817 100.892,90.817 100.892,90.817 C100.892,90.817 100.892,90.273 100.892,90.273 C100.892,90.273 100.407,90.180 100.407,90.180 C100.407,90.180 100.407,89.177 100.407,89.177 C100.407,89.177 101.172,89.177 101.172,89.177 C101.692,89.177 102.100,89.045 102.400,88.782 C102.700,88.519 102.851,88.171 102.851,87.739 C102.851,87.307 102.700,86.959 102.400,86.693 C102.100,86.427 101.692,86.294 101.172,86.294 C101.172,86.294 99.499,86.294 99.499,86.294 C99.499,86.294 99.016,86.294 99.016,86.294 C99.016,86.294 99.016,86.841 99.016,86.841 ZM69.051,88.589 C69.051,89.252 69.240,89.800 69.615,90.233 C69.992,90.666 70.487,90.881 71.098,90.881 C71.713,90.881 72.209,90.666 72.590,90.233 C72.969,89.800 73.159,89.252 73.159,88.589 C73.159,88.589 73.159,88.521 73.159,88.521 C73.159,87.863 72.969,87.316 72.588,86.881 C72.207,86.446 71.709,86.228 71.096,86.228 C70.483,86.228 69.991,86.446 69.615,86.881 C69.238,87.316 69.051,87.863 69.051,88.521 C69.051,88.521 69.051,88.589 69.051,88.589 ZM38.542,86.841 C38.542,86.841 39.025,86.934 39.025,86.934 C39.025,86.934 39.025,90.180 39.025,90.180 C39.025,90.180 38.542,90.273 38.542,90.273 C38.542,90.273 38.542,90.817 38.542,90.817 C38.542,90.817 40.418,90.817 40.418,90.817 C40.418,90.817 40.418,90.273 40.418,90.273 C40.418,90.273 39.933,90.180 39.933,90.180 C39.933,90.180 39.933,88.937 39.933,88.937 C39.933,88.937 41.782,88.937 41.782,88.937 C41.782,88.937 41.782,90.180 41.782,90.180 C41.782,90.180 41.297,90.273 41.297,90.273 C41.297,90.273 41.297,90.817 41.297,90.817 C41.297,90.817 43.173,90.817 43.173,90.817 C43.173,90.817 43.173,90.273 43.173,90.273 C43.173,90.273 42.688,90.180 42.688,90.180 C42.688,90.180 42.688,86.934 42.688,86.934 C42.688,86.934 43.173,86.841 43.173,86.841 C43.173,86.841 43.173,86.294 43.173,86.294 C43.173,86.294 42.688,86.294 42.688,86.294 C42.688,86.294 41.782,86.294 41.782,86.294 C41.782,86.294 41.297,86.294 41.297,86.294 C41.297,86.294 41.297,86.841 41.297,86.841 C41.297,86.841 41.782,86.934 41.782,86.934 C41.782,86.934 41.782,88.238 41.782,88.238 C41.782,88.238 39.933,88.238 39.933,88.238 C39.933,88.238 39.933,86.934 39.933,86.934 C39.933,86.934 40.418,86.841 40.418,86.841 C40.418,86.841 40.418,86.294 40.418,86.294 C40.418,86.294 38.542,86.294 38.542,86.294 C38.542,86.294 38.542,86.841 38.542,86.841 ZM11.585,90.043 C11.456,90.144 11.265,90.195 11.016,90.195 C10.824,90.195 10.650,90.171 10.493,90.122 C10.335,90.074 10.213,90.012 10.121,89.937 C10.121,89.937 10.024,89.294 10.024,89.294 C10.024,89.294 9.321,89.294 9.321,89.294 C9.321,89.294 9.321,90.239 9.321,90.239 C9.513,90.439 9.755,90.597 10.044,90.710 C10.333,90.825 10.657,90.881 11.016,90.881 C11.519,90.881 11.924,90.770 12.232,90.546 C12.537,90.322 12.691,90.017 12.691,89.630 C12.691,89.259 12.563,88.960 12.303,88.733 C12.045,88.504 11.666,88.322 11.166,88.183 C10.818,88.073 10.573,87.969 10.430,87.870 C10.288,87.771 10.218,87.646 10.218,87.493 C10.218,87.328 10.286,87.192 10.421,87.087 C10.557,86.983 10.749,86.931 10.998,86.931 C11.168,86.931 11.329,86.949 11.481,86.987 C11.633,87.024 11.747,87.067 11.825,87.117 C11.825,87.117 11.944,87.739 11.944,87.739 C11.944,87.739 12.625,87.739 12.625,87.739 C12.625,87.739 12.625,86.812 12.625,86.812 C12.431,86.637 12.190,86.496 11.904,86.390 C11.618,86.284 11.300,86.232 10.952,86.232 C10.482,86.238 10.090,86.357 9.779,86.590 C9.468,86.823 9.312,87.123 9.312,87.490 C9.312,87.860 9.449,88.152 9.726,88.365 C10.002,88.579 10.409,88.764 10.945,88.919 C11.254,89.012 11.470,89.111 11.595,89.217 C11.717,89.323 11.780,89.462 11.780,89.636 C11.780,89.806 11.715,89.941 11.585,90.043 ZM71.096,86.936 C71.477,86.936 71.766,87.083 71.960,87.375 C72.156,87.666 72.253,88.046 72.253,88.515 C72.253,88.515 72.253,88.589 72.253,88.589 C72.253,89.066 72.156,89.449 71.964,89.740 C71.772,90.031 71.483,90.177 71.098,90.177 C70.719,90.177 70.435,90.031 70.245,89.740 C70.055,89.449 69.959,89.066 69.959,88.589 C69.959,88.589 69.959,88.515 69.959,88.515 C69.959,88.043 70.055,87.662 70.241,87.371 C70.430,87.082 70.714,86.936 71.096,86.936 ZM101.747,87.206 C101.877,87.348 101.941,87.527 101.941,87.744 C101.941,87.958 101.877,88.133 101.747,88.271 C101.617,88.408 101.426,88.478 101.172,88.478 C101.172,88.478 100.407,88.478 100.407,88.478 C100.407,88.478 100.407,86.993 100.407,86.993 C100.407,86.993 101.172,86.993 101.172,86.993 C101.426,86.993 101.617,87.063 101.747,87.206 ZM107.152,98.487 C107.152,98.487 111.002,110.434 111.002,110.434 C111.002,110.434 109.455,110.999 109.455,110.999 C109.455,110.999 108.326,107.367 108.326,107.367 C108.326,107.367 103.984,107.367 103.984,107.367 C103.984,107.367 102.832,110.999 102.832,110.999 C102.832,110.999 101.284,110.434 101.284,110.434 C101.284,110.434 105.133,98.487 105.133,98.487 C105.133,98.487 107.152,98.487 107.152,98.487 ZM107.877,105.962 C107.877,105.962 106.144,100.314 106.144,100.314 C106.144,100.314 104.405,105.962 104.405,105.962 C104.405,105.962 107.877,105.962 107.877,105.962 Z"/></g></svg>