<?xml version="1.0" encoding="utf-8"?> <!-- Generated by Layerhero SVG Exporter: http://www.layerhero.com/photoshop-svg-exporter --><!DOCTYPE svg PUBLIC "-//W3C//DTD SVG 1.1//EN" "http://www.w3.org/Graphics/SVG/1.1/DTD/svg11.dtd"><svg version="1.1" baseProfile="full" xmlns="http://www.w3.org/2000/svg" xmlns:xlink="http://www.w3.org/1999/xlink" xmlns:ev="http://www.w3.org/2001/xml-events" width="118" height="118" viewBox="0 0 118 118"><g transform="scale(NaN)" ><path fill-rule="evenodd"  fill="rgb( 255, 255, 255 )" d="M59.000,118.000 C26.415,118.000 0.000,91.585 0.000,59.000 C0.000,26.415 26.415,0.000 59.000,0.000 C91.585,0.000 118.000,26.415 118.000,59.000 C118.000,91.585 91.585,118.000 59.000,118.000 ZM82.339,52.417 C82.339,52.417 59.573,29.212 59.573,29.212 C56.010,25.581 50.234,25.581 46.672,29.212 C43.109,32.843 43.109,38.731 46.672,42.362 C46.672,42.362 62.988,58.991 62.988,58.991 C62.988,58.991 46.672,75.622 46.672,75.622 C43.109,79.252 43.109,85.140 46.672,88.771 C50.234,92.402 56.010,92.402 59.573,88.771 C59.573,88.771 82.339,65.566 82.339,65.566 C85.901,61.935 85.901,56.048 82.339,52.417 Z"/></g></svg>